<svg width="23" height="23" viewBox="0 0 23 23" fill="none" xmlns="http://www.w3.org/2000/svg">
<path d="M23 11.5001C23 17.8514 17.8513 23.0001 11.5 23.0001C5.14871 23.0001 0 17.8514 0 11.5001C0 5.14877 5.14871 6.10352e-05 11.5 6.10352e-05C17.8513 6.10352e-05 23 5.14877 23 11.5001ZM10.1698 17.5892L18.7021 9.05696C18.9918 8.76723 18.9918 8.29745 18.7021 8.00772L17.6528 6.95849C17.3631 6.66872 16.8933 6.66872 16.6035 6.95849L9.64516 13.9168L6.39646 10.6681C6.10673 10.3784 5.63695 10.3784 5.34718 10.6681L4.29794 11.7174C4.00821 12.0071 4.00821 12.4769 4.29794 12.7666L9.12052 17.5892C9.41029 17.8789 9.88003 17.8789 10.1698 17.5892Z" fill="#2928A3"/>
</svg>
