<svg width="186" height="143" viewBox="0 0 186 143" fill="none" xmlns="http://www.w3.org/2000/svg">
<rect x="63.1866" y="93.7084" width="58.7368" height="46.5833" fill="#B5B0A3"/>
<circle cx="92.5" cy="105.5" r="1.5" fill="black"/>
<circle cx="92.5" cy="129.5" r="1.5" fill="black"/>
<circle cx="92.5" cy="123.5" r="1.5" fill="black"/>
<circle cx="92.5" cy="118.5" r="1.5" fill="black"/>
<circle cx="92.5" cy="111.5" r="1.5" fill="black"/>
<rect x="124.148" y="2.16663" width="60.0718" height="44.9583" fill="#B5B0A3"/>
<circle cx="153.5" cy="16.5" r="1.5" fill="black"/>
<circle cx="153.5" cy="34.5" r="1.5" fill="black"/>
<circle cx="153.5" cy="29.5" r="1.5" fill="black"/>
<circle cx="153.5" cy="22.5" r="1.5" fill="black"/>
<rect x="124.148" y="50.375" width="60.0718" height="89.9167" fill="#B5B0A3"/>
<path fill-rule="evenodd" clip-rule="evenodd" d="M1.66547 0.0406398L0.0357119 0.149914L0.0305655 3.80264C-0.076141 79.8381 0.105705 142.532 0.433372 142.743C0.881471 143.033 184.242 143.105 185.298 142.817L186 142.625V71.3675C186 14.601 185.913 0.110503 185.571 0.109787C118.223 0.00516707 2.84405 -0.0385414 1.66547 0.0406398ZM122.182 4.48661V6.91794L62.0524 6.9183H1.9228L1.99108 4.49987C2.02848 3.16956 2.06725 2.08108 2.07686 2.08108C2.08681 2.08108 29.1144 2.07535 62.1382 2.06818L122.182 2.05529V4.48661ZM183.941 24.8322V47.4043H154.091H124.241V24.8322V2.26022H154.091H183.941V24.8322ZM129.23 9.19163C128.431 9.80143 128.748 10.8591 129.73 10.8591C130.63 10.8591 131.004 9.88634 130.362 9.21563C129.945 8.77995 129.774 8.77638 129.23 9.19163ZM6.55476 71.4094V133.751H4.32661H2.09813L2.01064 71.7677C1.96226 37.6768 1.97427 9.623 2.03706 9.42595C2.10019 9.22889 3.14221 9.06766 4.35303 9.06766H6.55476V71.4094ZM27.4843 71.4094V133.751H18.0489H8.6134V71.4094V9.06766H18.0489H27.4843V71.4094ZM34.0342 70.872C34.0301 104.766 34.0215 132.78 34.015 133.124C34.0051 133.656 33.664 133.751 31.7732 133.751H29.543V71.393V9.03505L31.7924 9.14075L34.0418 9.2468L34.0342 70.872ZM57.0434 38.7158C57.0718 55.0225 57.078 71.7498 57.0571 75.888C57.0358 80.0262 57.0125 94.7407 57.0049 108.587L56.9916 133.762L46.6126 133.667L36.2336 133.572L36.1481 71.7677C36.1011 37.7753 36.1347 9.76202 36.2233 9.51552C36.3464 9.17085 38.7588 9.06766 46.6877 9.06766H56.9916L57.0434 38.7158ZM63.8537 50.2706V91.4735H62.1382H60.4226V116.016C60.4226 140.32 60.4161 140.559 59.7364 140.559C59.0526 140.559 59.0502 140.32 59.0502 74.8131V9.06766H61.452H63.8537V50.2706ZM87.9285 9.42558C87.9913 9.62264 88.003 28.1639 87.9543 50.6285L87.8654 91.4735H76.8891H65.9124V50.2706V9.06766H76.8633C83.8548 9.06766 87.8555 9.197 87.9285 9.42558ZM94.7334 50.2706V91.4735H92.3316H89.9299V50.5095C89.9299 27.9791 90.0328 9.43777 90.1587 9.30663C90.2843 9.17514 91.3651 9.06766 92.5605 9.06766H94.7334V50.2706ZM118.808 9.42558C118.871 9.62264 118.883 28.1639 118.834 50.6285L118.745 91.4735H107.769H96.792V50.2706V9.06766H107.743C114.735 9.06766 118.735 9.197 118.808 9.42558ZM122.182 50.2706C122.182 91.2345 122.178 91.4735 121.496 91.4735C120.814 91.4735 120.81 91.2345 120.81 50.5095C120.81 27.9791 120.913 9.43777 121.038 9.30663C122.178 8.11641 122.182 8.26259 122.182 50.2706ZM134.877 9.96337C134.877 10.6692 135.051 10.8591 135.698 10.8591C136.542 10.8591 136.949 10.3052 136.685 9.51552C136.603 9.26937 136.162 9.06766 135.706 9.06766C135.051 9.06766 134.877 9.25504 134.877 9.96337ZM140.834 9.60402C140.716 9.92683 140.777 10.3561 140.971 10.5585C141.53 11.1425 142.597 10.7487 142.597 9.95836C142.597 9.04723 141.146 8.75524 140.834 9.60402ZM146.886 9.92504C146.886 10.977 147.715 11.375 148.405 10.6545C149.095 9.93363 148.714 9.06766 147.707 9.06766C147.07 9.06766 146.886 9.2597 146.886 9.92504ZM152.843 9.60402C152.724 9.92683 152.786 10.3561 152.98 10.5585C153.539 11.1425 154.606 10.7487 154.606 9.95836C154.606 9.04723 153.155 8.75524 152.843 9.60402ZM158.895 9.93363C158.895 10.4098 159.088 10.8698 159.323 10.9555C160.08 11.231 160.61 10.8064 160.61 9.92504C160.61 9.24931 160.428 9.06766 159.752 9.06766C159.074 9.06766 158.895 9.24895 158.895 9.93363ZM164.852 9.60402C164.733 9.92683 164.795 10.3561 164.988 10.5585C165.548 11.1425 166.614 10.7487 166.614 9.95836C166.614 9.04723 165.164 8.75524 164.852 9.60402ZM170.783 9.5947C170.532 10.2772 171.46 11.2464 172.114 10.9849C172.392 10.8734 172.619 10.3965 172.619 9.92504C172.619 9.2597 172.435 9.06766 171.798 9.06766C171.346 9.06766 170.89 9.30485 170.783 9.5947ZM176.861 9.60402C176.742 9.92683 176.803 10.3561 176.997 10.5585C177.556 11.1425 178.623 10.7487 178.623 9.95836C178.623 9.04723 177.173 8.75524 176.861 9.60402ZM128.904 15.7407C128.613 16.5326 129.494 17.4799 130.243 17.1796C130.591 17.0402 130.766 16.6429 130.698 16.1452C130.561 15.1392 129.235 14.84 128.904 15.7407ZM176.86 15.696C176.588 16.4355 176.957 17.3082 177.541 17.3082C178.243 17.3082 178.841 16.4175 178.592 15.7415C178.323 15.0095 177.124 14.9779 176.86 15.696ZM129.23 21.7316C128.431 22.3414 128.748 23.3991 129.73 23.3991C130.63 23.3991 131.004 22.4264 130.362 21.7556C129.945 21.32 129.774 21.3164 129.23 21.7316ZM177.077 21.7897C176.471 22.5525 176.928 23.4715 177.846 23.3346C178.836 23.1874 179.036 22.1258 178.165 21.6392C177.659 21.3562 177.392 21.3931 177.077 21.7897ZM128.904 28.2807C128.613 29.0726 129.494 30.0199 130.243 29.7196C130.591 29.5802 130.766 29.1829 130.698 28.6853C130.561 27.6792 129.235 27.38 128.904 28.2807ZM176.86 28.236C176.588 28.9755 176.957 29.8482 177.541 29.8482C178.243 29.8482 178.841 28.9576 178.592 28.2815C178.323 27.5495 177.124 27.518 176.86 28.236ZM129.08 34.2813C128.509 35.0008 128.996 35.9972 129.856 35.8685C130.699 35.7424 131.041 34.5543 130.364 34.1065C129.729 33.6855 129.532 33.7124 129.08 34.2813ZM177.083 34.3222C176.513 35.0395 176.893 35.9391 177.765 35.9391C178.155 35.9391 178.563 35.6951 178.672 35.397C178.87 34.8607 178.265 33.7894 177.765 33.7894C177.623 33.7894 177.316 34.0291 177.083 34.3222ZM128.904 40.8208C128.613 41.6126 129.494 42.5599 130.243 42.2596C130.591 42.1203 130.766 41.7229 130.698 41.2253C130.561 40.2192 129.235 39.92 128.904 40.8208ZM135.001 40.776C134.729 41.5155 135.098 42.3883 135.682 42.3883C135.948 42.3883 136.357 42.1464 136.593 41.8508C136.933 41.422 136.933 41.2048 136.593 40.776C136.357 40.4804 135.948 40.2385 135.682 40.2385C135.416 40.2385 135.11 40.4804 135.001 40.776ZM140.936 40.757C140.606 41.6538 141.074 42.4359 141.868 42.3177C142.389 42.2399 142.597 41.9533 142.597 41.3134C142.597 40.2694 141.277 39.8276 140.936 40.757ZM147.01 40.776C146.738 41.5155 147.107 42.3883 147.691 42.3883C147.957 42.3883 148.366 42.1464 148.601 41.8508C148.942 41.422 148.942 41.2048 148.601 40.776C148.366 40.4804 147.957 40.2385 147.691 40.2385C147.425 40.2385 147.118 40.4804 147.01 40.776ZM152.842 40.7785C152.721 41.1081 152.861 41.6158 153.16 41.9275C153.889 42.6885 154.855 42.2525 154.715 41.2253C154.58 40.2303 153.167 39.8935 152.842 40.7785ZM159.028 40.7495C158.716 41.599 159.158 42.4567 159.837 42.3202C160.217 42.2439 160.438 41.8727 160.438 41.3134C160.438 40.2919 159.356 39.8591 159.028 40.7495ZM164.852 40.776C164.55 41.5954 164.972 42.3883 165.709 42.3883C166.072 42.3883 166.458 42.1464 166.567 41.8508C166.868 41.0314 166.446 40.2385 165.709 40.2385C165.346 40.2385 164.96 40.4804 164.852 40.776ZM171.037 40.7495C170.725 41.599 171.166 42.4567 171.846 42.3202C172.226 42.2439 172.447 41.8727 172.447 41.3134C172.447 40.2919 171.364 39.8591 171.037 40.7495ZM176.86 40.776C176.559 41.5954 176.981 42.3883 177.718 42.3883C178.081 42.3883 178.467 42.1464 178.576 41.8508C178.877 41.0314 178.455 40.2385 177.718 40.2385C177.355 40.2385 176.969 40.4804 176.86 40.776ZM183.941 95.2376V140.921L154.177 140.829L124.412 140.738L124.325 95.1459L124.238 49.554H154.09H183.941V95.2376ZM129.08 54.3453C128.509 55.0648 128.996 56.0612 129.856 55.9326C130.699 55.8064 131.041 54.6184 130.364 54.1705C129.729 53.7495 129.532 53.7764 129.08 54.3453ZM135.272 54.1705C134.595 54.6184 134.938 55.8064 135.78 55.9326C136.641 56.0612 137.128 55.0648 136.557 54.3453C136.104 53.7764 135.908 53.7495 135.272 54.1705ZM141.057 54.3862C140.445 55.1554 140.898 56.0759 141.82 55.9386C142.699 55.8079 143.068 54.6302 142.373 54.1705C141.73 53.7449 141.542 53.7757 141.057 54.3862ZM147.315 54.1107C146.713 54.336 146.779 55.6244 147.405 55.8752C147.933 56.087 148.944 55.4446 148.944 54.8971C148.944 54.4636 147.821 53.9215 147.315 54.1107ZM153.065 54.3862C152.454 55.1554 152.907 56.0759 153.829 55.9386C154.708 55.8079 155.077 54.6302 154.382 54.1705C153.739 53.7449 153.551 53.7757 153.065 54.3862ZM159.259 54.1981C158.603 54.6212 158.972 55.824 159.757 55.824C160.19 55.824 160.476 55.547 160.542 55.0634C160.656 54.2339 159.945 53.7552 159.259 54.1981ZM165.074 54.3862C164.504 55.1035 164.884 56.0031 165.757 56.0031C166.146 56.0031 166.554 55.7591 166.663 55.461C166.861 54.9247 166.257 53.8534 165.757 53.8534C165.614 53.8534 165.307 54.0931 165.074 54.3862ZM171.06 54.4571C170.573 54.9659 170.569 55.0909 171.024 55.566C171.669 56.2396 172.619 55.8892 172.619 54.9777C172.619 54.0465 171.736 53.7517 171.06 54.4571ZM177.131 54.1705C176.454 54.6184 176.797 55.8064 177.639 55.9326C178.5 56.0612 178.987 55.0648 178.416 54.3453C177.963 53.7764 177.767 53.7495 177.131 54.1705ZM129.042 60.8425C128.662 61.3205 128.677 61.5061 129.133 61.9819C129.869 62.75 130.839 62.3233 130.698 61.2932C130.564 60.3119 129.659 60.0657 129.042 60.8425ZM176.86 60.84C176.559 61.6594 176.981 62.4523 177.718 62.4523C178.081 62.4523 178.467 62.2104 178.576 61.9149C178.877 61.0955 178.455 60.3026 177.718 60.3026C177.355 60.3026 176.969 60.5444 176.86 60.84ZM128.948 67.2132C128.676 67.9534 129.207 68.632 129.943 68.484C130.855 68.3006 130.787 66.9606 129.86 66.8223C129.459 66.7628 129.049 66.9384 128.948 67.2132ZM176.939 67.0573C176.555 67.7055 177.149 68.5836 177.895 68.4726C178.893 68.3239 178.884 66.9696 177.883 66.8209C177.477 66.7603 177.052 66.8667 176.939 67.0573ZM129.044 73.7494C129.044 74.7329 129.903 75.314 130.474 74.7175C131.007 74.1611 130.468 72.8426 129.707 72.8426C129.226 72.8426 129.044 73.0919 129.044 73.7494ZM177.048 73.4187C176.659 73.9085 176.689 74.0704 177.248 74.4971C177.796 74.9153 177.982 74.9196 178.363 74.5219C178.883 73.9787 178.599 72.8426 177.942 72.8426C177.703 72.8426 177.3 73.102 177.048 73.4187ZM129.476 79.2355C129.276 79.3648 129.059 79.7933 128.993 80.1874C128.899 80.7464 129.061 80.904 129.73 80.904C130.343 80.904 130.618 80.6869 130.692 80.1434C130.801 79.3501 130.103 78.8292 129.476 79.2355ZM176.861 79.8281C176.742 80.1509 176.803 80.5801 176.997 80.7826C177.556 81.3666 178.623 80.9728 178.623 80.1824C178.623 79.2713 177.173 78.9793 176.861 79.8281ZM129.042 85.9225C128.664 86.3987 128.673 86.5818 129.098 87.026C129.792 87.7501 130.825 87.2962 130.692 86.326C130.563 85.3851 129.647 85.1612 129.042 85.9225ZM176.965 85.6216C176.53 86.0752 176.738 87.0981 177.312 87.3281C177.628 87.4549 178.097 87.3395 178.354 87.0715C178.61 86.8039 178.721 86.3141 178.599 85.9838C178.379 85.3847 177.399 85.1676 176.965 85.6216ZM129.08 91.9654C128.509 92.6848 128.996 93.6812 129.856 93.5526C130.699 93.4265 131.041 92.2384 130.364 91.7905C129.729 91.3696 129.532 91.3964 129.08 91.9654ZM177.083 92.0062C176.513 92.7235 176.893 93.6232 177.765 93.6232C178.155 93.6232 178.563 93.3792 178.672 93.0811C178.87 92.5447 178.265 91.4735 177.765 91.4735C177.623 91.4735 177.316 91.7132 177.083 92.0062ZM122.182 117.27V140.916L92.4174 140.827L62.6528 140.738L62.5647 117.18L62.4765 93.6232H92.3292H122.182V117.27ZM67.4876 98.5048C67.3603 98.8506 67.4656 99.34 67.726 99.6116C68.382 100.297 69.4042 99.8025 69.2758 98.8624C69.1441 97.8989 67.808 97.6317 67.4876 98.5048ZM73.6896 98.1616C73.2549 98.6152 73.4628 99.6381 74.0365 99.8681C74.78 100.166 75.6089 99.3002 75.3238 98.5238C75.1035 97.9247 74.1239 97.7076 73.6896 98.1616ZM79.4963 98.5048C79.369 98.8506 79.4744 99.34 79.7348 99.6116C80.3908 100.297 81.4129 99.8025 81.2846 98.8624C81.1529 97.8989 79.8168 97.6317 79.4963 98.5048ZM85.6983 98.1616C85.2588 98.6205 85.4743 99.6392 86.061 99.8742C86.7531 100.152 87.5762 99.1866 87.2962 98.4253C87.1054 97.9061 86.1015 97.7402 85.6983 98.1616ZM91.4162 98.488C91.302 98.7986 91.4612 99.317 91.77 99.6395C92.2901 100.182 92.3732 100.182 92.8933 99.6395C93.5946 98.9068 93.2728 97.9226 92.3316 97.9226C91.9422 97.9226 91.5305 98.177 91.4162 98.488ZM97.4783 98.8294C97.4783 99.9888 98.4465 100.418 99.0662 99.5331C99.6148 98.7492 99.1307 97.9226 98.1226 97.9226C97.6618 97.9226 97.4783 98.1813 97.4783 98.8294ZM103.425 98.488C103.311 98.7986 103.47 99.317 103.779 99.6395C104.299 100.182 104.382 100.182 104.902 99.6395C105.603 98.9068 105.282 97.9226 104.34 97.9226C103.951 97.9226 103.539 98.177 103.425 98.488ZM109.611 98.46C109.308 99.2859 109.759 100.139 110.43 100.006C110.793 99.9344 111.074 99.498 111.139 98.9047C111.227 98.1104 111.111 97.9226 110.528 97.9226C110.132 97.9226 109.72 98.1644 109.611 98.46ZM115.434 98.488C115.319 98.7986 115.479 99.317 115.787 99.6395C116.308 100.182 116.391 100.182 116.911 99.6395C117.612 98.9068 117.29 97.9226 116.349 97.9226C115.96 97.9226 115.548 98.177 115.434 98.488ZM128.904 98.5048C128.777 98.8506 128.882 99.34 129.142 99.6116C129.798 100.297 130.82 99.8025 130.692 98.8624C130.56 97.8989 129.224 97.6317 128.904 98.5048ZM176.85 98.488C176.736 98.7986 176.895 99.317 177.204 99.6395C177.724 100.182 177.807 100.182 178.327 99.6395C179.028 98.9068 178.707 97.9226 177.765 97.9226C177.376 97.9226 176.964 98.177 176.85 98.488ZM67.6639 104.505C67.0923 105.225 67.5799 106.221 68.44 106.093C69.2827 105.966 69.6251 104.778 68.9482 104.331C68.3124 103.91 68.1161 103.936 67.6639 104.505ZM115.667 104.546C115.096 105.264 115.476 106.163 116.349 106.163C116.739 106.163 117.147 105.919 117.256 105.621C117.453 105.085 116.849 104.013 116.349 104.013C116.207 104.013 115.899 104.253 115.667 104.546ZM129.08 104.505C128.509 105.225 128.996 106.221 129.856 106.093C130.699 105.966 131.041 104.778 130.364 104.331C129.729 103.91 129.532 103.936 129.08 104.505ZM177.083 104.546C176.513 105.264 176.893 106.163 177.765 106.163C178.155 106.163 178.563 105.919 178.672 105.621C178.87 105.085 178.265 104.013 177.765 104.013C177.623 104.013 177.316 104.253 177.083 104.546ZM67.408 111.003C67.2886 111.328 67.4162 111.828 67.6917 112.116C68.3783 112.833 69.4079 112.369 69.2758 111.402C69.1458 110.45 67.7229 110.146 67.408 111.003ZM115.434 111.028C115.319 111.339 115.479 111.857 115.787 112.18C116.308 112.722 116.391 112.722 116.911 112.18C117.612 111.447 117.29 110.463 116.349 110.463C115.96 110.463 115.548 110.717 115.434 111.028ZM128.806 111.052C128.673 111.414 128.837 111.83 129.23 112.13C129.774 112.545 129.945 112.542 130.362 112.106C130.632 111.824 130.76 111.339 130.646 111.028C130.372 110.284 129.082 110.301 128.806 111.052ZM176.85 111.028C176.736 111.339 176.895 111.857 177.204 112.18C177.724 112.722 177.807 112.722 178.327 112.18C179.028 111.447 178.707 110.463 177.765 110.463C177.376 110.463 176.964 110.717 176.85 111.028ZM67.6258 117.093C67.246 117.571 67.2611 117.757 67.7164 118.233C68.4524 119.001 69.4224 118.574 69.2817 117.544C69.1475 116.563 68.2431 116.317 67.6258 117.093ZM115.667 117.086C115.096 117.804 115.476 118.703 116.349 118.703C116.739 118.703 117.147 118.459 117.256 118.161C117.453 117.625 116.849 116.553 116.349 116.553C116.207 116.553 115.899 116.793 115.667 117.086ZM129.08 117.045C128.509 117.765 128.996 118.761 129.856 118.633C130.699 118.506 131.041 117.318 130.364 116.871C129.729 116.45 129.532 116.476 129.08 117.045ZM177.083 117.086C176.513 117.804 176.893 118.703 177.765 118.703C178.155 118.703 178.563 118.459 178.672 118.161C178.87 117.625 178.265 116.553 177.765 116.553C177.623 116.553 177.316 116.793 177.083 117.086ZM67.3898 123.592C67.1338 124.289 68.148 125.196 68.8621 124.91C69.1269 124.804 69.3434 124.332 69.3434 123.86C69.3434 123.181 69.1623 123.003 68.475 123.003C67.9854 123.003 67.5119 123.26 67.3898 123.592ZM115.425 123.592C115.292 123.954 115.456 124.37 115.849 124.67C116.392 125.085 116.564 125.082 116.981 124.646C117.251 124.364 117.379 123.879 117.265 123.568C116.991 122.824 115.701 122.841 115.425 123.592ZM128.815 123.568C128.701 123.879 128.86 124.397 129.169 124.72C129.689 125.262 129.772 125.262 130.292 124.72C130.993 123.987 130.672 123.003 129.73 123.003C129.341 123.003 128.929 123.257 128.815 123.568ZM176.85 123.568C176.736 123.879 176.863 124.364 177.134 124.646C177.551 125.082 177.722 125.085 178.266 124.67C179.064 124.06 178.747 123.003 177.765 123.003C177.376 123.003 176.964 123.257 176.85 123.568ZM67.6258 129.633C67.246 130.111 67.2611 130.297 67.7164 130.773C68.4524 131.541 69.4224 131.114 69.2817 130.084C69.1475 129.103 68.2431 128.857 67.6258 129.633ZM115.444 129.631C115.172 130.37 115.541 131.243 116.125 131.243C116.812 131.243 117.492 130.277 117.256 129.636C116.999 128.935 115.701 128.932 115.444 129.631ZM129.093 129.57C128.51 130.304 128.988 131.303 129.86 131.173C130.379 131.095 130.588 130.808 130.588 130.173C130.588 129.151 129.708 128.796 129.093 129.57ZM176.86 129.631C176.559 130.45 176.981 131.243 177.718 131.243C178.53 131.243 178.946 130.253 178.416 129.585C177.899 128.936 177.107 128.959 176.86 129.631ZM115.667 135.717C115.096 136.434 115.476 137.334 116.349 137.334C116.739 137.334 117.147 137.09 117.256 136.792C117.453 136.256 116.849 135.184 116.349 135.184C116.207 135.184 115.899 135.424 115.667 135.717ZM67.4876 135.848C67.2138 136.311 67.5751 137.236 68.1144 137.452C68.7838 137.721 69.4244 137.143 69.2879 136.395C69.1564 135.675 67.829 135.271 67.4876 135.848ZM73.5911 136.063C73.3293 136.776 73.717 137.334 74.4736 137.334C75.1481 137.334 75.5122 136.719 75.2686 135.99C75.0624 135.373 73.8251 135.426 73.5911 136.063ZM79.4974 136.121C79.3728 136.46 79.414 136.887 79.589 137.069C80.1201 137.624 81.1806 137.2 81.1806 136.433C81.1806 135.51 79.8154 135.256 79.4974 136.121ZM85.5999 136.063C85.3381 136.776 85.7258 137.334 86.4823 137.334C87.1569 137.334 87.5209 136.719 87.2773 135.99C87.0711 135.373 85.8339 135.426 85.5999 136.063ZM91.4269 136.079C91.3082 136.402 91.3696 136.831 91.5634 137.033C92.1227 137.617 93.1894 137.224 93.1894 136.433C93.1894 135.522 91.7388 135.23 91.4269 136.079ZM97.4783 136.438C97.4783 137.144 97.6522 137.334 98.2993 137.334C99.1434 137.334 99.5499 136.78 99.2861 135.99C99.2041 135.744 98.7635 135.543 98.3075 135.543C97.6519 135.543 97.4783 135.73 97.4783 136.438ZM103.436 136.079C103.317 136.402 103.378 136.831 103.572 137.033C104.131 137.617 105.198 137.224 105.198 136.433C105.198 135.522 103.748 135.23 103.436 136.079ZM109.487 136.438C109.487 137.155 109.659 137.334 110.345 137.334C111.031 137.334 111.203 137.155 111.203 136.438C111.203 135.722 111.031 135.543 110.345 135.543C109.659 135.543 109.487 135.722 109.487 136.438ZM128.841 136.038C128.546 136.839 128.969 137.334 129.946 137.334C130.643 137.334 130.786 137.18 130.698 136.528C130.567 135.567 129.151 135.194 128.841 136.038ZM135.106 135.782C134.98 135.913 134.877 136.316 134.877 136.677C134.877 137.441 136.419 137.62 136.677 136.886C137.04 135.856 135.841 135.013 135.106 135.782ZM140.834 136.079C140.716 136.402 140.777 136.831 140.971 137.033C141.53 137.617 142.597 137.224 142.597 136.433C142.597 135.522 141.146 135.23 140.834 136.079ZM146.886 136.438C146.886 137.144 147.06 137.334 147.707 137.334C148.551 137.334 148.957 136.78 148.694 135.99C148.612 135.744 148.171 135.543 147.715 135.543C147.059 135.543 146.886 135.73 146.886 136.438ZM152.843 136.079C152.724 136.402 152.786 136.831 152.98 137.033C153.539 137.617 154.606 137.224 154.606 136.433C154.606 135.522 153.155 135.23 152.843 136.079ZM158.895 136.409C158.895 136.885 159.088 137.345 159.323 137.43C160.08 137.706 160.61 137.281 160.61 136.4C160.61 135.724 160.428 135.543 159.752 135.543C159.074 135.543 158.895 135.724 158.895 136.409ZM164.852 136.079C164.733 136.402 164.795 136.831 164.988 137.033C165.548 137.617 166.614 137.224 166.614 136.433C166.614 135.522 165.164 135.23 164.852 136.079ZM170.903 136.438C170.903 137.155 171.075 137.334 171.761 137.334C172.447 137.334 172.619 137.155 172.619 136.438C172.619 135.722 172.447 135.543 171.761 135.543C171.075 135.543 170.903 135.722 170.903 136.438ZM176.861 136.079C176.742 136.402 176.803 136.831 176.997 137.033C177.556 137.617 178.623 137.224 178.623 136.433C178.623 135.522 177.173 135.23 176.861 136.079ZM56.9916 138.23V140.559H29.3714H1.75125L1.75502 139.573C1.75708 139.031 1.85452 137.984 1.97152 137.244L2.18425 135.901H29.5879H56.9916V138.23Z" fill="black"/>
<circle cx="153.5" cy="95.5" r="1.5" fill="black"/>
<circle cx="153.5" cy="119.5" r="1.5" fill="black"/>
<circle cx="153.5" cy="113.5" r="1.5" fill="black"/>
<circle cx="153.5" cy="108.5" r="1.5" fill="black"/>
<circle cx="153.5" cy="101.5" r="1.5" fill="black"/>
<circle cx="153.5" cy="63.5" r="1.5" fill="black"/>
<circle cx="153.5" cy="87.5" r="1.5" fill="black"/>
<circle cx="153.5" cy="81.5" r="1.5" fill="black"/>
<circle cx="153.5" cy="76.5" r="1.5" fill="black"/>
<circle cx="153.5" cy="69.5" r="1.5" fill="black"/>
</svg>
