<svg width="182" height="65" viewBox="0 0 182 65" fill="none" xmlns="http://www.w3.org/2000/svg">
<path d="M133.187 48.1634C132.471 47.3619 52.4903 48.1634 52.4903 48.1634C50.6052 44.5266 49.6121 42.9277 47.947 40.8077H137.298C134.17 43.987 133.904 48.965 133.187 48.1634Z" fill="#ACACAC" stroke="black" stroke-width="0.5"/>
<path d="M49.8943 48.1635H136.433" stroke="#524D4D"/>
<path d="M52.2739 48.1635C44.5993 28.3928 26.8952 29.4369 19.822 48.1635" stroke="#524D4D"/>
<path d="M166.288 47.7308C157.457 28.4482 139.678 30.0569 133.404 48.4463" stroke="#524D4D"/>
<path d="M49.8941 50.9759C49.8941 58.5035 43.7919 64.6057 36.2643 64.6057C28.7368 64.6057 22.6345 58.5035 22.6345 50.9759C22.6345 43.4484 28.7368 37.3461 36.2643 37.3461C43.7919 37.3461 49.8941 43.4484 49.8941 50.9759ZM30.1342 50.9759C30.1342 54.3615 32.8788 57.106 36.2643 57.106C39.6499 57.106 42.3944 54.3615 42.3944 50.9759C42.3944 47.5904 39.6499 44.8459 36.2643 44.8459C32.8788 44.8459 30.1342 47.5904 30.1342 50.9759Z" fill="#2D2D2D"/>
<path d="M163.26 50.9759C163.26 58.5035 157.157 64.6057 149.63 64.6057C142.102 64.6057 136 58.5035 136 50.9759C136 43.4484 142.102 37.3461 149.63 37.3461C157.157 37.3461 163.26 43.4484 163.26 50.9759ZM143.5 50.9759C143.5 54.3615 146.244 57.106 149.63 57.106C153.015 57.106 155.76 54.3615 155.76 50.9759C155.76 47.5904 153.015 44.8459 149.63 44.8459C146.244 44.8459 143.5 47.5904 143.5 50.9759Z" fill="#2D2D2D"/>
<path d="M20.227 48.1635H1V40.9704H2.96639M23.5 40.9704H4.93279M4.93279 40.9704V19.1731H2.52942L2.96639 40.9704M4.93279 40.9704H2.96639" stroke="#524D4D"/>
<path d="M23.0673 41.024H1V48.1635H19.8221C20.5169 46.2371 23.9327 41.024 23.0673 41.024Z" fill="#ACACAC" stroke="#524D4D" stroke-width="0.5"/>
<path d="M5.32698 22.851H100.519V1H137.514L149.197 20.6875H172.563L177.322 36.0481H179.269L180.784 40.1587H177.322V41.024H162.827C153.494 31.5308 144.747 31.7027 137.298 41.024H48.3799C39.3439 31.3532 33.078 30.762 23.5001 41.024H4.89429L5.32698 22.851Z" fill="url(#paint0_linear_220_47)"/>
<path d="M177.322 36.0481L172.563 20.6875H149.197L137.514 1H100.519V22.851H5.32698L4.89429 41.024H23.5001C33.078 30.762 39.3439 31.3532 48.3799 41.024H137.298C144.747 31.7027 153.494 31.5308 162.827 41.024H177.322V36.0481ZM177.322 36.0481H179.269L180.784 40.1587M177.322 36.0481V40.1587H180.784M180.784 40.1587V47.9471H162.827" stroke="black"/>
<path d="M177.538 41.6731V36.0481H179.486L181 41.6731H177.538Z" fill="#F49300" stroke="#524D4D"/>
<path d="M166.505 47.9471L162.827 41.024L180.784 41.6731V47.9471H166.505Z" fill="#ACACAC"/>
<path d="M100.087 41.024V23.2836" stroke="#524D4D"/>
<path d="M120.856 40.5913V23.0673M120.856 5.54327H132.538L141.409 21.5529V23.0673H120.856M120.856 5.54327V23.0673M120.856 5.54327H105.279V23.0673H120.856" stroke="#524D4D"/>
<path d="M140.976 36.6971V23.2836" stroke="#524D4D"/>
<path d="M105.279 23.0673V5.54327H132.538L141.409 21.5529V23.0673H105.279Z" fill="#B9E2FE" stroke="#524D4D"/>
<path d="M19.6057 48.1635H22.6346" stroke="#524D4D"/>
<path d="M111.769 5.54327L105.279 13.7644V20.2548L117.394 5.54327H111.769Z" fill="white" stroke="black" stroke-width="0.5"/>
<path d="M131.024 5.54327H124.101L110.904 23.0673H118.26L131.024 5.54327Z" fill="white" stroke="black" stroke-width="0.5"/>
<path d="M139.029 17.226L136.865 13.3317L129.293 23.0673H134.486L139.029 17.226Z" fill="white" stroke="black" stroke-width="0.5"/>
<path d="M2.51428 19.3894L2.94697 40.8077H4.89409V19.3894H2.51428Z" fill="#ACACAC" stroke="black"/>
<path d="M122.86 30.1695L117.963 25L113.886 29.3025L113.065 30.1695L117.963 27.4356L122.86 30.1695Z" fill="white"/>
<path d="M124.312 26.8905C124.51 26.6796 124.845 26.6796 125.042 26.8905L129.162 31.2897C129.553 31.7075 129.049 32.3483 128.551 32.0669L124.923 30.0181C124.771 29.9319 124.584 29.9319 124.432 30.0181L120.804 32.0669C120.305 32.3483 119.802 31.7075 120.193 31.2897L124.312 26.8905Z" fill="white"/>
<path d="M110.883 26.8905C111.081 26.6796 111.415 26.6796 111.613 26.8905L115.733 31.2897C116.124 31.7075 115.62 32.3483 115.122 32.0669L111.494 30.0181C111.341 29.9319 111.155 29.9319 111.002 30.0181L107.374 32.0669C106.876 32.3483 106.372 31.7075 106.764 31.2897L110.883 26.8905Z" fill="white"/>
<rect x="123.28" y="31.5679" width="1.19301" height="0.996868" fill="white"/>
<rect x="123.28" y="32.8796" width="1.19301" height="0.996868" fill="white"/>
<rect x="124.771" y="31.5679" width="1.19301" height="0.996868" fill="white"/>
<rect x="124.771" y="32.8796" width="1.19301" height="0.996868" fill="white"/>
<rect x="109.858" y="31.5679" width="1.19301" height="0.996868" fill="white"/>
<rect x="109.858" y="32.8796" width="1.19301" height="0.996868" fill="white"/>
<rect x="111.349" y="31.5679" width="1.19301" height="0.996868" fill="white"/>
<rect x="111.349" y="32.8796" width="1.19301" height="0.996868" fill="white"/>
<rect x="116.95" y="28.6667" width="0.867026" height="0.724477" fill="white"/>
<rect x="116.95" y="29.6199" width="0.867026" height="0.724477" fill="white"/>
<rect x="118.034" y="28.6667" width="0.867026" height="0.724477" fill="white"/>
<rect x="118.034" y="29.6199" width="0.867026" height="0.724477" fill="white"/>
<path d="M102 36.3395L118.443 35.5057L135 36.3395L118.443 36.8397L102 36.3395Z" fill="white"/>
<rect width="1.29957" height="0.594743" transform="matrix(0.686659 0.726979 -0.68888 0.724875 113.929 28.5019)" fill="#2928A3"/>
<rect width="1.29957" height="0.579066" transform="matrix(-0.686659 0.726979 0.68888 0.724875 122.015 28.5019)" fill="#2928A3"/>
<defs>
<linearGradient id="paint0_linear_220_47" x1="92.7308" y1="1" x2="92.839" y2="47.9471" gradientUnits="userSpaceOnUse">
<stop stop-color="#5B4946"/>
<stop offset="0.0001" stop-color="#F9EBE9" stop-opacity="0.57"/>
<stop offset="1" stop-color="#6F605D" stop-opacity="0.96"/>
</linearGradient>
</defs>
</svg>
