<svg width="184" height="141" viewBox="0 0 184 141" fill="none" xmlns="http://www.w3.org/2000/svg">
<path d="M1 0.5H183V6V140.5H1V6V0.5Z" stroke="black"/>
<path d="M0 6H7.5M182.5 6H130.5H121M7.5 6V139.5H28.5V6M7.5 6H28.5M28.5 6H36.5M36.5 6V139.5H58.5V6M36.5 6H58.5M58.5 6H66M66 6V139.5H90V6M66 6H90M90 6H97.5M97.5 6V139.5H121V6M97.5 6H121" stroke="black"/>
<path d="M128.5 6V139" stroke="black"/>
<rect x="146" y="6.5" width="6" height="132" stroke="black"/>
<rect x="169" y="6.5" width="6" height="132" stroke="black"/>
<rect x="1.5" y="71.5" width="181" height="22" fill="#A44B25" stroke="black"/>
<rect x="1.5" y="94.5" width="181" height="22" fill="#A44B25" stroke="black"/>
<rect x="1.5" y="117.5" width="181" height="22" fill="#A44B25" stroke="black"/>
<path d="M178.635 85.6281C166.403 85.1576 154.177 84.4602 141.95 83.8601" stroke="black" stroke-linecap="round"/>
<path d="M172.89 81.208C161.247 81.4409 149.612 81.7594 137.973 82.092" stroke="black" stroke-linecap="round"/>
<path d="M140.625 82.9761C126.617 82.812 112.634 82.1531 98.6357 81.6501" stroke="black" stroke-linecap="round"/>
<path d="M58.8569 85.186L147.696 86.07" stroke="black" stroke-linecap="round"/>
<path d="M122.945 83.8601C95.1486 81.9121 67.2542 82.2039 39.4094 81.6501" stroke="black" stroke-linecap="round"/>
<path d="M119.851 86.9539L60.1829 85.6279" stroke="black" stroke-linecap="round"/>
<path d="M65.9287 75.9043H107.917" stroke="black" stroke-linecap="round"/>
<path d="M24.824 76.3462L45.5974 77.2302" stroke="black" stroke-linecap="round"/>
<path d="M13.3323 81.6501L43.8294 82.5341" stroke="black" stroke-linecap="round"/>
<path d="M6.2605 86.512H19.9621" stroke="black" stroke-linecap="round"/>
<path d="M19.962 91.8159L46.0393 89.606" stroke="black" stroke-linecap="round"/>
<path d="M48.6912 85.186H58.4149" stroke="black" stroke-linecap="round"/>
<path d="M85.3761 90.9319C88.0361 90.2182 90.6846 89.4783 93.3319 88.7219" stroke="black" stroke-linecap="round"/>
<path d="M104.382 89.1638C113.962 89.5827 123.526 89.8275 133.111 90.0478" stroke="black" stroke-linecap="round"/>
<path d="M168.912 90.0479C158.458 89.5084 147.994 89.6864 137.531 89.606" stroke="black" stroke-linecap="round"/>
<path d="M166.702 75.0203C157.432 75.937 148.155 76.2764 138.857 76.7882" stroke="black" stroke-linecap="round"/>
<path d="M130.459 79.8821C125.839 79.3687 121.331 78.4793 116.757 77.6721" stroke="black" stroke-linecap="round"/>
<path d="M107.917 98.8876C100.693 98.8673 83.811 98.6846 75.9961 99.1331C73.0499 99.3023 64.9805 100.332 67.5493 101.785C70.9029 103.682 84.154 105.335 86.3092 105.567C92.4285 106.224 102.702 106.763 109.145 106.45C110.661 106.377 112.404 106.596 113.639 105.714C114.217 105.301 112.579 104.681 111.895 104.486C107.755 103.303 97.3166 101.996 93.6265 101.638C89.4731 101.234 82.1269 100.728 77.5676 101.147C58.0938 102.936 82.2745 100.714 73.8844 102.865" stroke="black" stroke-linecap="round"/>
<path d="M149.906 102.865C133.811 102.492 117.478 101.53 101.41 103.16C98.2148 103.484 90.0328 103.833 92.2515 106.156C93.3461 107.302 95.1647 107.476 96.7205 107.776C100.193 108.447 103.731 108.745 107.255 109.053C121.258 110.277 135.367 110.379 149.415 110.379C154.507 110.379 139.232 110.304 134.142 110.158C134.011 110.154 128.813 110.604 128.544 109.151C128.269 107.671 129.575 106.093 128.74 104.584C127.7 102.705 125.877 104.615 125.155 105.517" stroke="black" stroke-linecap="round"/>
<path d="M176.425 99.3297C169.947 97.9778 163.466 96.6494 156.978 95.3518" stroke="black" stroke-linecap="round"/>
<path d="M179.961 106.401H146.812" stroke="black" stroke-linecap="round"/>
<path d="M175.542 114.799C170.085 114.4 164.65 114.143 159.188 113.915" stroke="black" stroke-linecap="round"/>
<path d="M4.49243 98.8877C11.7115 99.0464 18.9304 99.1935 26.1498 99.3297" stroke="black" stroke-linecap="round"/>
<path d="M7.14441 110.821C16.8886 110.204 26.6038 109.481 36.3156 108.611" stroke="black" stroke-linecap="round"/>
<path d="M10.6803 103.307L37.6415 101.981" stroke="black" stroke-linecap="round"/>
<path d="M35.8735 98.8877C48.5163 99.1374 60.8606 99.0709 73.4424 100.459C107.786 104.249 69.4403 100.951 99.9617 105.959" stroke="black" stroke-linecap="round"/>
<path d="M83.1662 108.169H65.9287" stroke="black" stroke-linecap="round"/>
<path d="M34.9895 104.191C55.2126 104.738 75.4426 105.134 95.6645 105.714C100.478 105.852 98.9124 105.67 101.73 106.843" stroke="black" stroke-linecap="round"/>
<path d="M29.2438 114.357H75.2104" stroke="black" stroke-linecap="round"/>
<path d="M48.2493 113.473C63.9662 113.303 111.109 112.894 95.3946 112.589C89.7565 112.48 82.3342 113.559 76.9784 111.263" stroke="black" stroke-linecap="round"/>
<path d="M156.978 98.8877C145.416 98.6736 133.14 99.5223 121.865 102.08C118.805 102.774 112.211 104.581 113.958 107.187C116.314 110.703 125.697 110.52 129.108 110.551C132.815 110.585 138.459 110.823 139.544 106.279C139.73 105.501 140.147 103.732 139.299 103.308" stroke="black" stroke-linecap="round"/>
<path d="M18.1941 123.639C28.4679 126.175 41.0969 130.91 52.0061 130.195C52.2465 130.179 52.3598 129.551 52.1289 129.483C47.4026 128.082 44.9551 129.251 39.8515 128.501" stroke="black" stroke-linecap="round"/>
<path d="M108.801 118.777C104.365 119.334 99.9112 119.763 95.4927 120.447C92.1804 120.959 88.8364 121.414 85.6216 122.362C84.2369 122.771 82.5336 123.208 81.8402 124.474C80.235 127.405 93.8481 128.824 94.4614 128.894C95.2701 128.986 101.063 129.994 101.975 128.231C102.589 127.044 100.427 126.672 99.9617 126.291" stroke="black" stroke-linecap="round"/>
<path d="M153 122.755C144.892 122.636 133.337 122.306 125.057 122.755C122.236 122.908 119.406 123.143 116.635 123.688C115.364 123.938 110.808 124.601 113.663 126.806C115.458 128.192 122.103 130.453 124.369 128.943C124.794 128.66 124.836 127.974 124.296 127.862C121.185 127.222 117.709 127.617 114.547 127.617" stroke="black" stroke-linecap="round"/>
<path d="M53.1111 121.871C61.2596 122.205 82.3229 121.472 76.9047 127.568C73.4634 131.439 68.4746 131.083 64.1608 132.479" stroke="black" stroke-linecap="round"/>
<path d="M14.2162 128.943C25.7538 130.819 37.0409 130.711 48.6912 131.153" stroke="black" stroke-linecap="round"/>
<path d="M107.475 133.363L74.3264 130.711" stroke="black" stroke-linecap="round"/>
<path d="M133.111 128.943H155.652" stroke="black" stroke-linecap="round"/>
<path d="M163.166 135.573C156.095 136.184 149.024 136.775 141.95 137.34" stroke="black" stroke-linecap="round"/>
<path d="M171.122 130.269C155.194 129.301 139.335 129.216 123.387 128.943" stroke="black" stroke-linecap="round"/>
<path d="M29.2438 133.805H54.437" stroke="black" stroke-linecap="round"/>
<circle cx="32" cy="71" r="2" fill="white"/>
<circle cx="3" cy="71" r="2" fill="white"/>
<circle cx="62" cy="71" r="2" fill="white"/>
<circle cx="93" cy="71" r="2" fill="white"/>
<circle cx="124" cy="71" r="2" fill="white"/>
<circle cx="148" cy="71" r="2" fill="white"/>
<circle cx="172" cy="71" r="2" fill="white"/>
</svg>
