<svg width="653" height="234" viewBox="0 0 653 234" fill="none" xmlns="http://www.w3.org/2000/svg">
<path d="M412.285 102.169L315.487 0L234.921 85.0351L218.688 102.169L315.487 48.1373L412.285 102.169Z" fill="white"/>
<path d="M447.83 30.0517C448.027 29.8407 448.362 29.8407 448.56 30.0517L578.672 168.999C579.064 169.416 578.56 170.057 578.062 169.776L448.441 96.572C448.288 96.4858 448.101 96.4858 447.949 96.572L318.328 169.776C317.83 170.057 317.326 169.416 317.717 168.999L447.83 30.0517Z" fill="white"/>
<path d="M182.414 30.0517C182.612 29.8407 182.946 29.8407 183.144 30.0517L313.257 168.999C313.648 169.416 313.144 170.057 312.646 169.776L183.025 96.572C182.872 96.4858 182.686 96.4858 182.533 96.572L52.9122 169.776C52.4139 170.057 51.9102 169.416 52.3014 168.999L182.414 30.0517Z" fill="white"/>
<rect x="420.571" y="129.807" width="23.5787" height="19.7021" fill="white"/>
<rect x="420.571" y="155.731" width="23.5787" height="19.7021" fill="white"/>
<rect x="450.044" y="129.808" width="23.5787" height="19.7021" fill="white"/>
<rect x="450.044" y="155.731" width="23.5787" height="19.7021" fill="white"/>
<rect x="155.311" y="129.807" width="23.5787" height="19.7021" fill="white"/>
<rect x="155.311" y="155.731" width="23.5787" height="19.7021" fill="white"/>
<rect x="184.784" y="129.808" width="23.5787" height="19.7021" fill="white"/>
<rect x="184.784" y="155.731" width="23.5787" height="19.7021" fill="white"/>
<rect x="295.467" y="72.4687" width="17.1359" height="14.3185" fill="white"/>
<rect x="295.467" y="91.309" width="17.1359" height="14.3185" fill="white"/>
<rect x="316.887" y="72.4687" width="17.1359" height="14.3185" fill="white"/>
<rect x="316.887" y="91.309" width="17.1359" height="14.3185" fill="white"/>
<path d="M0 224.113L324.981 207.634L652.211 224.113L324.981 234L0 224.113Z" fill="white"/>
</svg>
