<svg width="31" height="32" viewBox="0 0 31 32" fill="none" xmlns="http://www.w3.org/2000/svg">
<path d="M30.5784 27.666L24.5414 21.4354C24.269 21.1542 23.8996 20.9979 23.5121 20.9979H22.5251C24.1963 18.7919 25.1893 16.0172 25.1893 12.9987C25.1893 5.81818 19.552 0 12.5947 0C5.63733 0 0 5.81818 0 12.9987C0 20.1793 5.63733 25.9975 12.5947 25.9975C15.5193 25.9975 18.2078 24.9726 20.3452 23.2477V24.2664C20.3452 24.6663 20.4966 25.0476 20.7691 25.3288L26.8061 31.5594C27.3752 32.1469 28.2956 32.1469 28.8588 31.5594L30.5724 29.7908C31.1415 29.2034 31.1415 28.2535 30.5784 27.666ZM12.5947 20.9979C8.31369 20.9979 4.8441 17.4233 4.8441 12.9987C4.8441 8.58041 8.30764 4.99951 12.5947 4.99951C16.8756 4.99951 20.3452 8.57416 20.3452 12.9987C20.3452 17.417 16.8817 20.9979 12.5947 20.9979Z" fill="black"/>
</svg>
