<svg width="64" height="52" viewBox="0 0 64 52" fill="none" xmlns="http://www.w3.org/2000/svg">
<path d="M61.7143 41.6H2.28571C1.67951 41.6 1.09812 41.8739 0.66947 42.3615C0.240816 42.8491 0 43.5104 0 44.2L0 49.4C0 50.0896 0.240816 50.7509 0.66947 51.2385C1.09812 51.7261 1.67951 52 2.28571 52H61.7143C62.3205 52 62.9019 51.7261 63.3305 51.2385C63.7592 50.7509 64 50.0896 64 49.4V44.2C64 43.5104 63.7592 42.8491 63.3305 42.3615C62.9019 41.8739 62.3205 41.6 61.7143 41.6ZM61.7143 20.8H2.28571C1.67951 20.8 1.09812 21.0739 0.66947 21.5615C0.240816 22.0491 0 22.7104 0 23.4L0 28.6C0 29.2896 0.240816 29.9509 0.66947 30.4385C1.09812 30.9261 1.67951 31.2 2.28571 31.2H61.7143C62.3205 31.2 62.9019 30.9261 63.3305 30.4385C63.7592 29.9509 64 29.2896 64 28.6V23.4C64 22.7104 63.7592 22.0491 63.3305 21.5615C62.9019 21.0739 62.3205 20.8 61.7143 20.8ZM61.7143 0H2.28571C1.67951 0 1.09812 0.273928 0.66947 0.761522C0.240816 1.24912 0 1.91044 0 2.6L0 7.8C0 8.48956 0.240816 9.15088 0.66947 9.63848C1.09812 10.1261 1.67951 10.4 2.28571 10.4H61.7143C62.3205 10.4 62.9019 10.1261 63.3305 9.63848C63.7592 9.15088 64 8.48956 64 7.8V2.6C64 1.91044 63.7592 1.24912 63.3305 0.761522C62.9019 0.273928 62.3205 0 61.7143 0Z" fill="white"/>
</svg>
