<svg width="42" height="42" viewBox="0 0 42 42" fill="none" xmlns="http://www.w3.org/2000/svg">
<path d="M41.4094 31.9102C42.1969 32.6977 42.1969 33.9773 41.4094 34.7648L34.7648 41.4094C33.9773 42.1969 32.6977 42.1969 31.9102 41.4094L21 30.4008L10.0898 41.4094C9.30234 42.1969 8.02265 42.1969 7.23515 41.4094L0.590625 34.7648C-0.196875 33.9773 -0.196875 32.6977 0.590625 31.9102L11.5992 21L0.590625 10.0898C-0.196875 9.30234 -0.196875 8.02266 0.590625 7.23516L7.23515 0.590625C8.02265 -0.196875 9.30234 -0.196875 10.0898 0.590625L21 11.5992L31.9102 0.590625C32.6977 -0.196875 33.9773 -0.196875 34.7648 0.590625L41.4094 7.23516C42.1969 8.02266 42.1969 9.30234 41.4094 10.0898L30.4008 21L41.4094 31.9102Z" fill="white"/>
</svg>
